<svg xmlns="http://www.w3.org/2000/svg" xmlns:xlink="http://www.w3.org/1999/xlink" xmlns:inkscape="http://www.inkscape.org/namespaces/inkscape" version="1.1" width="252" height="144" viewBox="0 0 252 144">
<defs>
<clipPath id="clip_0">
<path transform="matrix(1,0,0,-1,0,144)" d="M0 144H252V0H0Z"></path>
</clipPath>
</defs>
<path transform="matrix(1,0,0,-1,0,144)" d="M0 0H252V144H0Z" fill="#00000000"></path>
<g clip-path="url(#clip_0)">
<path transform="matrix(1,0,0,-1,76.1653,93.407)" d="M0 0V10.444H7.709C7.709 6.963 11.19 6.383 12.931 6.3 14.382 6.3 16.454 6.631 16.454 8.372 16.454 11.605 .539 10.237 .539 20.806 .539 26.939 6.341 29.717 10.403 29.717 13.884 29.717 17.407 28.598 19.065 25.489L19.479 28.97H26.608V18.568H19.106C19.106 21.634 16.702 23.375 13.801 23.375 12.599 23.375 10.942 22.629 10.942 21.179 10.942 16.91 27.354 17.904 27.354 8.165 27.354 1.699 21.303-.622 16.371-.622 12.185-.622 9.284 1.326 7.709 3.192L7.253 0Z" fill="#ffffff"></path>
<path transform="matrix(1,0,0,-1,105.175,72.6845)" d="M0 0H2.238V3.813L9.864 6.258V0H13.801V-5.388H9.864V-12.765C9.864-14.174 9.574-16.081 11.19-16.081 11.729-16.081 13.014-15.708 13.801-15.376V-20.681C12.558-21.179 9.74-21.469 8.787-21.469 2.57-21.469 2.362-18.07 2.238-12.765V-5.388H0Z" fill="#ffffff"></path>
<path transform="matrix(1,0,0,-1,132.9422,87.4389)" d="M0 0V1.575C-.124 1.782-.704 2.777-2.445 2.777-4.103 2.777-4.849 1.865-4.849 .58-4.849-.58-3.896-1.368-2.653-1.368-1.409-1.368-.373-.622 0 0M-11.853 13.014C-10.195 14.009-6.631 15.957-2.818 15.957 2.155 15.957 8.413 14.091 8.413 7.419V-.663H10.9V-5.968H2.031L1.036-4.103C-.497-6.217-3.067-6.755-4.559-6.755-8.496-6.755-12.724-4.642-12.724 .166-12.724 4.849-8.786 7.792-4.103 7.792-1.658 7.792-.207 6.59 0 6.341V7.792C0 9.657-1.699 10.113-3.937 10.113-6.383 10.113-8.538 9.077-10.113 8.206Z" fill="#ffffff"></path>
<path transform="matrix(1,0,0,-1,157.2276,93.407)" d="M0 0H-11.729V5.429H-9.905V15.335H-11.688V20.723H-3.896L-2.652 18.07C-1.575 20.059-.497 21.469 3.772 21.469V14.299C.042 14.299-2.072 13.346-2.072 9.698V5.429H0Z" fill="#ffffff"></path>
<path transform="matrix(1,0,0,-1,162.2408,72.6845)" d="M0 0H2.238V3.813L9.864 6.258V0H13.802V-5.388H9.864V-12.765C9.864-14.174 9.574-16.081 11.191-16.081 11.729-16.081 13.014-15.708 13.802-15.376V-20.681C12.558-21.179 9.74-21.469 8.786-21.469 2.57-21.469 2.363-18.07 2.238-12.765V-5.388H0Z" fill="#ffffff"></path>
<path transform="matrix(1,0,0,-1,105.7193,45.2724)" d="M0 0H5.005C4.971 1.259 4.673 2.651 2.552 2.651 .53 2.651 .066 .829 0 0M10.738-7.623C8.286-9.744 5.634-10.506 2.187-10.506-1.922-10.506-6.562-7.888-6.562-1.524-6.562 3.911-2.651 7.126 2.353 7.126 6.297 7.126 9.313 5.104 10.274 2.32 10.672 1.16 11.036-1.392 10.341-3.281H-.099C.1-4.176 .53-5.999 3.314-5.999 4.441-5.999 6.164-5.899 7.954-4.408Z" fill="#ffffff"></path>
<path transform="matrix(1,0,0,-1,86.0659,42.5216)" d="M0 0H-1.259V-14.384H0C3.513-14.317 4.971-11.036 4.971-6.894 4.971-3.347 3.513 0 0 0M-10.108-18.791V-14.384H-8.054V0H-10.108V4.375H0C8.021 4.375 12.594-.563 12.594-6.894 12.594-14.45 8.021-18.791-.132-18.791Z" fill="#ffffff"></path>
<path transform="matrix(1,0,0,-1,0,144)" d="M115.613 82.686H100.002V87.09499H115.613Z" fill="#ffffff"></path>
<path transform="matrix(1,0,0,-1,118.7942,67.872)" d="M0 0V26.887C0 28.366 1.617 29.278 2.882 28.512L25.108 15.069C26.33 14.33 26.33 12.557 25.108 11.818L2.882-1.625C1.617-2.391 0-1.479 0 0" fill="#008ed3"></path>
<path transform="matrix(1,0,0,-1,145.16,100.7713)" d="M0 0C-.082 .214-.192 .396-.332 .546-.472 .695-.635 .812-.822 .894-1.01 .975-1.209 1.016-1.42 1.016-1.631 1.016-1.832 .975-2.022 .894-2.213 .812-2.38 .694-2.522 .541-2.666 .388-2.78 .205-2.865-.006-2.95-.217-2.992-.455-2.992-.721-2.992-.986-2.95-1.225-2.865-1.436-2.78-1.646-2.666-1.829-2.522-1.981-2.38-2.135-2.213-2.253-2.022-2.334-1.832-2.416-1.631-2.457-1.42-2.457-1.209-2.457-1.01-2.416-.822-2.334-.635-2.253-.472-2.137-.332-1.987-.192-1.837-.082-1.655 0-1.44 .082-1.226 .123-.986 .123-.721 .123-.455 .082-.215 0 0M1.159-1.915C1.02-2.263 .833-2.558 .598-2.799 .362-3.041 .094-3.223-.209-3.346-.513-3.468-.824-3.529-1.144-3.529-1.587-3.529-1.954-3.434-2.247-3.243-2.54-3.053-2.781-2.831-2.973-2.579L-2.962-3.417H-4.208V4.039H-2.962V1.077C-2.765 1.363-2.521 1.604-2.229 1.797-1.937 1.991-1.572 2.089-1.138 2.089-.818 2.089-.51 2.027-.211 1.904 .088 1.782 .354 1.6 .589 1.358 .823 1.116 1.012 .822 1.155 .475 1.298 .127 1.369-.271 1.369-.721 1.369-1.17 1.299-1.568 1.159-1.915" fill="#ffffff"></path>
<path transform="matrix(1,0,0,-1,150.4197,104.3416)" d="M0 0C-.108-.279-.221-.514-.337-.705-.452-.896-.582-1.05-.725-1.169-.868-1.288-1.024-1.375-1.194-1.43-1.365-1.484-1.559-1.512-1.776-1.512-2.036-1.512-2.266-1.482-2.466-1.424-2.667-1.365-2.863-1.284-3.054-1.182L-2.635-.255C-2.52-.316-2.401-.366-2.282-.403-2.163-.44-2.039-.46-1.909-.46-1.732-.46-1.586-.415-1.471-.327-1.354-.238-1.246-.075-1.144 .162L-3.391 5.547H-2.073L-.541 1.542 .858 5.547H2.146Z" fill="#ffffff"></path>
<path transform="matrix(1,0,0,-1,160.1142,101.9044)" d="M0 0C-.244-.721-.874-1.145-1.634-1.128-1.744-1.125-1.736-1.073-1.736-1.001-1.735-.356-1.735 .289-1.735 .933-1.735 1.563-1.736 2.192-1.735 2.82-1.735 3.018-1.727 3.023-1.515 2.995-.711 2.89-.205 2.435 .019 1.667 .181 1.112 .186 .551 0 0M1.93 1.544C1.658 3.044 .391 3.893-.984 4.077-1.455 4.14-1.932 4.127-2.407 4.127-2.798 4.127-3.19 4.125-3.581 4.129-3.68 4.13-3.697 4.107-3.661 4.014-3.528 3.671-3.476 3.311-3.476 2.944-3.476 1.549-3.476 .153-3.476-1.242-3.476-1.604-3.526-1.958-3.659-2.296-3.703-2.408-3.672-2.424-3.565-2.423-2.967-2.419-2.37-2.422-1.772-2.421-1.351-2.42-.931-2.39-.519-2.297 .216-2.131 .853-1.792 1.33-1.197 1.982-.385 2.109 .559 1.93 1.544" fill="#ffffff"></path>
<path transform="matrix(1,0,0,-1,166.1543,102.5016)" d="M0 0C.252-.287 .559-.498 .935-.6 1.099-.644 1.265-.681 1.432-.643 1.893-.538 2.078-.114 1.872 .348 1.785 .542 1.64 .688 1.478 .817 1.093 1.123 .716 1.435 .402 1.819-.406 2.81 .086 4.25 1.264 4.675 1.711 4.836 2.169 4.831 2.633 4.776 2.91 4.744 3.179 4.683 3.443 4.597 3.513 4.574 3.546 4.544 3.545 4.465 3.542 4.001 3.544 3.537 3.544 3.046 3.43 3.127 3.335 3.197 3.236 3.263 2.997 3.423 2.742 3.537 2.445 3.535 2.208 3.533 1.999 3.469 1.892 3.244 1.781 3.01 1.853 2.789 2.003 2.593 2.139 2.416 2.321 2.286 2.494 2.146 2.827 1.877 3.133 1.582 3.397 1.24 4.147 .268 3.756-1.397 2.327-1.82 1.557-2.048 .79-1.948 .048-1.648-.002-1.628-.031-1.608-.031-1.55-.027-1.037-.025-.525-.022-.013-.022-.01-.014-.008 0 0" fill="#ffffff"></path>
<path transform="matrix(1,0,0,-1,170.5019,99.2307)" d="M0 0C.152 .47 .298 .909 .433 1.352 .463 1.45 .519 1.454 .597 1.454 1.168 1.453 1.739 1.453 2.31 1.453 3.188 1.453 4.066 1.452 4.943 1.454 5.124 1.455 5.298 1.408 5.475 1.386 5.537 1.378 5.551 1.357 5.533 1.293 5.424 .908 5.315 .523 5.216 .135 5.19 .034 5.136 .063 5.078 .08 4.649 .214 4.203 .239 3.762 .291 3.711 .297 3.678 .285 3.682 .226 3.684 .21 3.682 .194 3.682 .178 3.684-1.19 3.682-2.559 3.689-3.928 3.691-4.283 3.756-4.631 3.892-4.962 3.929-5.051 3.942-5.099 3.81-5.098 3.149-5.092 2.488-5.094 1.827-5.096 1.74-5.096 1.697-5.091 1.743-4.985 1.936-4.533 1.964-4.053 1.966-3.572 1.972-2.335 1.966-1.099 1.972 .138 1.972 .276 1.93 .306 1.804 .297 1.203 .254 .599 .233 0 0" fill="#ffffff"></path>
<path transform="matrix(1,0,0,-1,165.014,104.325809)" d="M0 0C-.627 0-1.256 0-1.884 0-1.949-.001-1.97 .02-1.944 .085-1.735 .61-1.759 1.162-1.759 1.71-1.76 2.35-1.746 2.989-1.773 3.628-1.784 3.904-1.836 4.172-1.932 4.431-1.964 4.516-1.964 4.555-1.856 4.554-1.254 4.551-.651 4.552-.048 4.554 .046 4.554 .057 4.526 .023 4.442-.112 4.116-.153 3.771-.169 3.422-.209 2.566-.219 1.711-.17 .856-.157 .617-.108 .386-.033 .16-.016 .111 .015 .065 0 0" fill="#ffffff"></path>
<path transform="matrix(1,0,0,-1,164.9951,98.4151)" d="M0 0C0-.518-.42-.939-.939-.939-1.457-.939-1.877-.518-1.877 0-1.877 .518-1.457 .939-.939 .939-.42 .939 0 .518 0 0" fill="#ffffff"></path>
</g>
</svg>