<svg version="1.2" xmlns="http://www.w3.org/2000/svg" viewBox="0 0 252 144" width="252" height="144">
	<title>logo</title>
	<defs>
		<clipPath clipPathUnits="userSpaceOnUse" id="cp1">
			<path d="m0 0h252v144h-252z"/>
		</clipPath>
	</defs>
	<style>
		.s0 { fill: #231f20 } 
		.s1 { fill: #008ed3 } 
	</style>
	<g id="Clip-Path" clip-path="url(#cp1)">
		<g>
			<path class="s0" d="m76.2 93.4v-10.4h7.7c0 3.4 3.5 4 5.2 4.1 1.4 0 3.5-0.3 3.5-2.1 0-3.2-15.9-1.8-15.9-12.4 0-6.1 5.8-8.9 9.9-8.9 3.4 0 7 1.1 8.6 4.2l0.4-3.5h7.2v10.4h-7.5c0-3-2.4-4.8-5.3-4.8-1.2 0-2.9 0.8-2.9 2.2 0 4.3 16.4 3.3 16.4 13 0 6.5-6 8.8-11 8.8-4.1 0-7.1-1.9-8.6-3.8l-0.5 3.2z"/>
			<path class="s0" d="m105.2 72.7h2.2v-3.8l7.6-2.5v6.3h4v5.4h-4v7.3c0 1.5-0.3 3.4 1.4 3.4 0.5 0 1.8-0.4 2.6-0.7v5.3c-1.3 0.5-4.1 0.8-5 0.8-6.3 0-6.5-3.4-6.6-8.8v-7.3h-2.2z"/>
			<path class="s0" d="m121.1 74.4c1.6-1 5.2-2.9 9-2.9 5 0 11.3 1.8 11.3 8.5v8.1h2.4v5.3h-8.8l-1-1.9c-1.6 2.2-4.1 2.7-5.6 2.7-4 0-8.2-2.1-8.2-6.9 0-4.7 4-7.7 8.6-7.7 2.5 0 3.9 1.2 4.1 1.5v-1.5c0-1.8-1.7-2.3-3.9-2.3-2.4 0-4.6 1.1-6.2 1.9zm11.9 13v-1.5c-0.1-0.2-0.7-1.2-2.5-1.2-1.6 0-2.4 0.9-2.4 2.2 0 1.1 1 1.9 2.2 1.9 1.3 0 2.3-0.7 2.7-1.4z"/>
			<path class="s0" d="m157.2 93.4h-11.7v-5.4h1.8v-9.9h-1.8v-5.4h7.8l1.3 2.6c1.1-2 2.1-3.4 6.4-3.4v7.2c-3.7 0-5.8 1-5.8 4.6v4.3h2z"/>
			<path class="s0" d="m162.2 72.7h2.3v-3.8l7.6-2.5v6.3h3.9v5.4h-3.9v7.3c0 1.5-0.3 3.4 1.3 3.4 0.6 0 1.9-0.4 2.6-0.7v5.3c-1.2 0.5-4 0.8-5 0.8-6.2 0-6.4-3.4-6.5-8.8v-7.3h-2.3z"/>
			<path class="s0" d="m116.5 52.9c-2.5 2.1-5.1 2.9-8.6 2.9-4.1 0-8.7-2.6-8.7-9 0-5.4 3.9-8.7 8.9-8.7 3.9 0 6.9 2.1 7.9 4.9 0.4 1.1 0.8 3.7 0.1 5.6h-10.5c0.2 0.8 0.6 2.7 3.4 2.7 1.2 0 2.9-0.1 4.7-1.6zm-10.8-7.6h5c0-1.3-0.3-2.7-2.4-2.7-2 0-2.5 1.8-2.6 2.7z"/>
			<path class="s0" d="m76 61.3v-4.4h2v-14.4h-2v-4.4h10.1c8 0 12.6 5 12.6 11.3 0 7.6-4.6 11.9-12.8 11.9zm10.1-18.8h-1.2v14.4h1.2c3.6-0.1 5-3.3 5-7.5 0-3.5-1.4-6.9-5-6.9z"/>
			<path class="s0" d="m115.6 61.3h-15.6v-4.4h15.6z"/>
			<path class="s1" d="m118.8 67.9v-26.9c0-1.5 1.6-2.4 2.9-1.6l22.2 13.4c1.2 0.7 1.2 2.5 0 3.3l-22.2 13.4c-1.3 0.8-2.9-0.1-2.9-1.6z"/>
			<path class="s0" d="m146.3 102.7q-0.2 0.5-0.5 0.9-0.4 0.3-0.8 0.5-0.5 0.2-1 0.2-0.6 0-1.1-0.3-0.4-0.3-0.7-0.6v0.8h-1.2v-7.5h1.2v3q0.3-0.4 0.7-0.7 0.5-0.3 1.1-0.3 0.5 0 0.9 0.2 0.5 0.2 0.8 0.5 0.4 0.4 0.6 0.9 0.2 0.5 0.2 1.2 0 0.7-0.2 1.2zm-1.1-1.9q-0.2-0.3-0.4-0.6-0.2-0.2-0.5-0.3-0.2-0.1-0.6-0.1-0.3 0-0.6 0.1-0.2 0.1-0.5 0.3-0.2 0.3-0.3 0.6-0.1 0.3-0.1 0.7 0 0.4 0.1 0.7 0.1 0.3 0.3 0.6 0.3 0.2 0.5 0.3 0.3 0.1 0.6 0.1 0.4 0 0.6-0.1 0.3-0.1 0.5-0.3 0.2-0.3 0.4-0.6 0.1-0.3 0.1-0.7 0-0.4-0.1-0.7z"/>
			<path class="s0" d="m150.4 104.3q-0.1 0.5-0.3 0.7-0.2 0.3-0.4 0.5-0.2 0.2-0.5 0.3-0.2 0.1-0.6 0.1-0.3 0-0.6-0.1-0.3-0.1-0.6-0.3l0.4-0.9q0.2 0.1 0.3 0.1 0.2 0.1 0.4 0.1 0.3 0 0.4-0.1 0.2-0.2 0.4-0.5l-2.3-5.4h1.3l1.6 4 1.4-4h1.3z"/>
			<path class="s0" d="m162 100.4c-0.2-1.5-1.5-2.4-2.9-2.6-0.4 0-0.9 0-1.4 0q-0.6 0-1.2 0-0.1 0 0 0.1 0.1 0.5 0.1 1.1 0 2.1 0 4.1 0 0.6-0.1 1.1c-0.1 0.1-0.1 0.1 0 0.1q0.9 0 1.8 0 0.7 0 1.3-0.1c0.7-0.2 1.4-0.5 1.8-1.1 0.7-0.8 0.8-1.8 0.6-2.7zm-1.9 1.5c-0.2 0.7-0.9 1.1-1.6 1.1-0.1 0-0.1 0-0.1-0.1q0-1 0-1.9 0-1 0-1.9c0-0.2 0-0.2 0.2-0.2q1.2 0.2 1.5 1.3 0.3 0.9 0 1.7z"/>
			<path class="s0" d="m166.2 102.5q0.3 0.4 0.9 0.6c0.2 0 0.3 0.1 0.5 0 0.4-0.1 0.6-0.5 0.4-0.9q-0.1-0.3-0.4-0.5c-0.4-0.3-0.7-0.6-1-1-0.9-1-0.4-2.4 0.8-2.9 0.5-0.1 0.9-0.1 1.4-0.1q0.4 0.1 0.8 0.2 0.1 0 0.1 0.1 0 0.7 0 1.5-0.2-0.2-0.3-0.3c-0.2-0.1-0.5-0.2-0.8-0.2-0.2 0-0.4 0-0.6 0.3-0.1 0.2 0 0.4 0.2 0.6 0.1 0.2 0.3 0.3 0.4 0.5q0.6 0.4 1 0.9c0.7 0.9 0.3 2.6-1.1 3-0.8 0.2-1.6 0.1-2.3-0.2q-0.1 0-0.1 0 0-0.8 0-1.6 0 0 0.1 0z"/>
			<path class="s0" d="m170.5 99.2q0.2-0.7 0.4-1.3c0.1-0.1 0.1-0.1 0.2-0.1q0.9 0 1.7 0 1.3 0 2.6 0c0.2 0 0.4 0 0.6 0q0.1 0 0 0.1-0.1 0.6-0.3 1.2c0 0.1-0.1 0.1-0.1 0.1-0.4-0.2-0.9-0.2-1.3-0.3q-0.1 0-0.1 0.1 0 0 0 0.1 0 2 0 4.1 0 0.5 0.2 1c0 0.1 0 0.1-0.1 0.1q-1 0-2 0c-0.1 0-0.1 0-0.1-0.1 0.2-0.4 0.3-0.9 0.3-1.4q0-1.9 0-3.7c0-0.1-0.1-0.2-0.2-0.2-0.6 0.1-1.2 0.1-1.8 0.3z"/>
			<path class="s0" d="m165 104.3q-0.9 0-1.9 0-0.1 0 0-0.1c0.2-0.5 0.2-1 0.2-1.6q0-0.9-0.1-1.9 0-0.4-0.1-0.8c0-0.1 0-0.1 0.1-0.1q0.9 0 1.8 0 0.1 0 0 0.1c-0.1 0.3-0.1 0.7-0.2 1q0 1.3 0 2.6 0.1 0.3 0.2 0.7c0 0 0 0.1 0 0.1z"/>
			<path class="s0" d="m165 98.4c0 0.5-0.4 1-0.9 1-0.6 0-1-0.5-1-1 0-0.5 0.4-0.9 1-0.9 0.5 0 0.9 0.4 0.9 0.9z"/>
		</g>
	</g>
</svg>